<svg xmlns="http://www.w3.org/2000/svg" viewBox="0 0 352.24 352.2"><g id="Capa_2" data-name="Capa 2"><g id="Capa_1-2" data-name="Capa 1"><path d="M176.23,0q47,0,93.93,0c41,0,73.26,26.81,80.86,67a69.14,69.14,0,0,1,1.2,13c0,42.79.09,85.58,0,128.36A80.4,80.4,0,0,1,282,287.69a103.36,103.36,0,0,1-12.68.76q-42.11.09-84.2,0a13.62,13.62,0,0,0-8,2.42q-42.9,28.75-85.88,57.37c-4.29,2.86-8.75,4.79-14,3.63-8.3-1.81-13.33-8.41-13.39-17.86-.08-14.22-.13-28.44,0-42.66,0-3.47-.94-4.95-4.44-5.88A80.07,80.07,0,0,1,.61,217.12,97.91,97.91,0,0,1,0,206.31Q0,144.18,0,82.07C0,41.12,26.8,8.84,67,1.19A77.44,77.44,0,0,1,81.55,0Q128.89.06,176.23,0Zm0,127.93h81.93c4.24,0,8.48.08,12.72,0,5.64-.14,10.58-2,13.82-6.85,3.36-5.07,4-10.53,1-15.95-3.05-5.6-7.89-8.3-14.41-8.29q-85.67.08-171.34,0c-6.61,0-13.22-.1-19.83,0a15.28,15.28,0,0,0-13,23.33c3.48,5.94,9.12,7.73,15.6,7.72Zm-.45,63.69q31.44,0,62.87,0c10,0,16.78-6.33,16.75-15.61,0-9.08-6.78-15.41-16.56-15.42q-62.68,0-125.36,0a20.41,20.41,0,0,0-4.82.44c-8,2-12.63,9.07-11.63,17.58.82,7.05,7.52,12.94,15.14,13C133.32,191.68,154.53,191.63,175.73,191.64Z"/></g></g></svg>