<svg xmlns="http://www.w3.org/2000/svg" viewBox="0 0 344.83 344.19"><g id="Capa_2" data-name="Capa 2"><g id="Capa_1-2" data-name="Capa 1"><path d="M171.09,0A172.42,172.42,0,0,1,341.69,139.8c18,92-43.14,183-135.27,201-39.8,7.77-77.8,2.08-113.71-16.79a10.88,10.88,0,0,0-8.92-.87q-26.7,8.13-53.48,16c-11.68,3.41-22.83-2.71-25.83-14-1.18-4.46-.55-8.87.74-13.26,5.06-17.23,10-34.5,15.12-51.69a11.27,11.27,0,0,0-1.07-9.2A166.26,166.26,0,0,1,.2,181.23C-2.19,127.41,16.47,82,55.68,45.22,81.74,20.8,113,6.59,148.44,1.51A140.72,140.72,0,0,1,171.09,0ZM108.44,159.87A19.44,19.44,0,0,0,88.58,179c-.23,10.58,8.63,19.49,19.45,19.57a19.36,19.36,0,1,0,.41-38.71Zm128.06,0c-11-.06-19.76,8.39-19.8,19.07A19.29,19.29,0,0,0,236,198.58a19.36,19.36,0,1,0,.52-38.71Zm-64.11,38.71a19,19,0,0,0,19.23-19.53c0-11-8.47-19.23-19.56-19.18a18.94,18.94,0,0,0-19.22,19.51C152.9,190.38,161.31,198.64,172.39,198.58Z"/></g></g></svg>