<svg xmlns="http://www.w3.org/2000/svg" xmlns:xlink="http://www.w3.org/1999/xlink" viewBox="0 0 69.33 69.94"><defs><style>.cls-1{fill:url(#Degradado_sin_nombre_2);}.cls-2{fill:#fff;}.cls-3{fill:#050505;}.cls-4{fill:none;stroke:#000;stroke-miterlimit:10;}</style><linearGradient id="Degradado_sin_nombre_2" x1="64.33" y1="-307.01" x2="106.88" y2="-376.59" gradientTransform="matrix(1, 0, 0, -1, -50, -305.3)" gradientUnits="userSpaceOnUse"><stop offset="0" stop-color="#4d75fc"/><stop offset="1" stop-color="#7559fc"/></linearGradient></defs><g id="Capa_2" data-name="Capa 2"><g id="Capa_1-2" data-name="Capa 1"><path class="cls-1" d="M55.58,0H13.75A13.74,13.74,0,0,0,0,13.75V56.18A13.74,13.74,0,0,0,13.75,69.92H26.4V61.86C8.5,58.7,17.87,28.34,17.87,28.34c7.63,5.16,24.39-.2,24.39-.2C39.58,32,40,35.1,40,35.1s3.45,3.56,4.14,2.9c2-1.89,6.13-.3,6.13-.3,6,4,2.74,8.26,2.74,9.66s-6.27,4-6.27,4l0,18.6h8.85A13.75,13.75,0,0,0,69.33,56.18V13.75A13.75,13.75,0,0,0,55.58,0Z"/><path class="cls-2" d="M53,47.36c0-1.4,3.27-5.67-2.74-9.66,0,0-4.15-1.59-6.13.3-.69.66-4.14-2.9-4.14-2.9s-.45-3.08,2.23-7c0,0-16.76,5.36-24.39.2,0,0-9.37,30.36,8.53,33.52v8.06H46.73l0-18.6S53,48.77,53,47.36Z"/><path d="M48.94,45.3a2,2,0,0,1,.11.73h-.49a1.09,1.09,0,0,0-.18-.42c-.25-.39-1-.61-1.5-.81s-1-.42-1.15-.92c-.22-.69.57-2.29,2.83-3.35a2.33,2.33,0,0,1,.86.54l.12.13c-2.18.82-2.85,2.12-2.85,2.42,0,0,.37.16.58.26A2.62,2.62,0,0,1,48.94,45.3Z"/><path d="M47.79,42.14l-1.63,1.47,2.33,1S46.72,43,47.79,42.14Z"/><path d="M49.77,41.68a.09.09,0,0,1-.09-.07,2,2,0,0,0-.14-.3,2.08,2.08,0,0,0-1.47-.86.1.1,0,1,1,0-.2,2.32,2.32,0,0,1,1.61,1,1.81,1.81,0,0,1,.16.35.1.1,0,0,1-.06.13Z"/><path d="M48.06,40.45a.2.2,0,0,1,.15.25h.39v-.27Z"/><path d="M48.93,41.46s.52-.28.71,0-.1-.29-.1-.29l-.49-.2Z"/><path d="M39.06,61a17.12,17.12,0,0,1-11.89,8.9V61.75S29.19,63.33,39.06,61Z"/><path d="M51.61,37.88s7.7-3.85.27-14.26-16-6.86-16-6.86S34.41,8,28.29,7.1c-8.72-1.27-11.4,11.18-11.4,11.18s-2-3.13-4.61-2.46S4.19,38.86,41,29.28c0,0-5.22,6.58,2.51,9.13A7.94,7.94,0,0,1,51.61,37.88Z"/><path d="M42.63,18.52c-.64-2.26-.51-5.49.93-6.22,1.83-.92,5,2.54,6.4,5.2.64,1.17,1.56,2.86,1.1,4.22-.62,1.81-3.44,2.24-5.49,1.06A7.2,7.2,0,0,1,42.63,18.52Z"/><path d="M47.71,21.85c.75-1.9,4.9-2.65,7-.81A3.66,3.66,0,0,1,56,24.85c-.67,1.7-2.91,1.92-3.23,2a4.77,4.77,0,0,1-4.27-2C48.26,24.48,47.24,23.06,47.71,21.85Z"/><path d="M48.69,26.06c4-2.11,8.31,2.54,8.42,2.85a12.24,12.24,0,0,0-9.27-1.82c-2.12.43-3.6-.14-3.67-.33S46.49,27.23,48.69,26.06Z"/><path d="M57.12,29.42a.86.86,0,0,1-.45-.18,11.51,11.51,0,0,0-8.74-1.66c-2.07.42-4,0-4.23-.65l-.09-.25.17-.24c.19-.26.46-.24.94-.21a6.83,6.83,0,0,0,3.74-.61,5.6,5.6,0,0,1,4.86-.11,10,10,0,0,1,4.26,3.24l.11.34-.28.22A.46.46,0,0,1,57.12,29.42Zm-6.77-3.09a12.27,12.27,0,0,1,3.41.48,5.17,5.17,0,0,0-4.59-.42A11.81,11.81,0,0,1,50.35,26.33Z"/><path d="M53.62,35.1s2.68,3.43,0,6.2c0,0-.87-3-3.32-3.6l.34-4.53Z"/><path class="cls-3" d="M30.75,62.55c-4.7,0-8.38-1.36-11-4.07-8.18-8.49-3.05-27-2.83-27.74a.5.5,0,0,1,1,.28c-.06.18-5.2,18.69,2.58,26.76,3.7,3.84,9.79,4.76,18.09,2.72a.5.5,0,0,1,.6.37.49.49,0,0,1-.36.6A34.2,34.2,0,0,1,30.75,62.55Z"/><path class="cls-3" d="M46.77,51.32a.5.5,0,0,1-.06-1c3.49-.41,6.92-2.71,6.7-6.94a6.56,6.56,0,0,0-.74-2.93A5.54,5.54,0,0,0,50,38.13a6,6,0,0,0-6,.42.51.51,0,0,1-.71-.08.5.5,0,0,1,.09-.7,7,7,0,0,1,7-.56A6.56,6.56,0,0,1,53.55,40a7.74,7.74,0,0,1,.86,3.36c.25,4.88-3.63,7.52-7.58,8Z"/><path class="cls-3" d="M24.39,48.09c-.22,0-.44,0-.65,0A3.74,3.74,0,0,1,22,47.55a2.2,2.2,0,0,1-.84-2,25,25,0,0,1,1.53-8l1,.31a23.84,23.84,0,0,0-1.49,7.72c0,.65.05,1,.41,1.23a2.76,2.76,0,0,0,1.26.35,8.68,8.68,0,0,0,2.37-.16l.18,1A11.09,11.09,0,0,1,24.39,48.09Z"/><circle cx="29.53" cy="40.99" r="1.25"/><circle class="cls-3" cx="19.12" cy="41.93" r="1.25"/><path class="cls-3" d="M26.45,35.72v.09c0,.32.33.35.57.32.53-.06,1-.23,1.55-.28a5.1,5.1,0,0,1,1.56.08c.51.11,1,.36,1.5.42a.6.6,0,0,0,.72-.64,1,1,0,0,0-.22-.49,3.39,3.39,0,0,0-1.48-1.07,3.2,3.2,0,0,0-.91-.28,3.29,3.29,0,0,0-.94,0,3.46,3.46,0,0,0-1.11.41,3,3,0,0,0-.77.56A1.63,1.63,0,0,0,26.45,35.72Z"/><path class="cls-3" d="M16,36.58c0,.39.31.38.56.28.42-.16.79-.43,1.2-.59A3.88,3.88,0,0,1,19.06,36c.44,0,.89.15,1.33.11a.58.58,0,0,0,.5-.52.59.59,0,0,0-.09-.32,2,2,0,0,0-1.3-.8,3,3,0,0,0-1.37,0,2.85,2.85,0,0,0-1.28.68,3,3,0,0,0-.78,1A.92.92,0,0,0,16,36.58Z"/><path class="cls-3" d="M26.74,55.57a7,7,0,0,1-1.66-.2C23.43,55,21.8,53.72,22.13,52a1,1,0,0,1,.21-.51c.43-.57,1.24-.48,1.68-.44l.18,0a3.73,3.73,0,0,0,.41,0,6.53,6.53,0,0,0,2.28-.46l.37-.16a2.85,2.85,0,0,1,2.17-.33,1.63,1.63,0,0,1,.87,1,3.32,3.32,0,0,1-.35,3A3.71,3.71,0,0,1,26.74,55.57ZM23.51,52c-.29,0-.36.06-.38.08-.26,1.38,1.32,2.12,2.19,2.34,1.32.33,3,.27,3.8-.86a2.34,2.34,0,0,0,.25-2.07A.7.7,0,0,0,29,51c-.31-.13-.9.12-1.38.33l-.4.17a7.6,7.6,0,0,1-2.62.53c-.14,0-.35,0-.55,0l-.18,0Z"/><path class="cls-3" d="M46.72,67.87a.5.5,0,0,1-.5-.5V50.93a.51.51,0,0,1,.5-.5.5.5,0,0,1,.5.5V67.37A.5.5,0,0,1,46.72,67.87Z"/><path class="cls-3" d="M26.9,69.94a.5.5,0,0,1-.5-.5V61.86a.5.5,0,0,1,.5-.5.5.5,0,0,1,.5.5v7.58A.5.5,0,0,1,26.9,69.94Z"/><polygon points="16.87 30.94 17.34 29.18 18.31 29.57 17.69 31.78 16.87 30.94"/><line class="cls-4" x1="46.72" y1="66.93" x2="46.72" y2="69.92"/></g></g></svg>