<svg xmlns="http://www.w3.org/2000/svg" viewBox="0 0 409.11 327.96"><g id="Capa_2" data-name="Capa 2"><g id="Capa_1-2" data-name="Capa 1"><path d="M409.11,33.84V294.13l-1.3,4.18a41.56,41.56,0,0,1-39.72,29.61q-163.47.06-326.93,0A41.18,41.18,0,0,1,0,286.73Q0,164,0,41.23a37,37,0,0,1,.45-6.74C4.33,14.1,21.18.06,42,0Q112.21,0,182.47,0q92,0,184,0a42.87,42.87,0,0,1,20,4.44C398.71,10.69,405.75,20.84,409.11,33.84ZM41.82,164q0,57.88,0,115.76c0,6.09.14,6.21,6.3,6.22H75.27c6.24,0,6.25,0,6.25-6.17v-166c0-1.33,0-2.66,0-4,0-2.37.86-3.32,3.15-1.91.79.49,1.58,1,2.36,1.48q56.82,36,113.58,72c3.07,2,5.21,1.86,8.22,0q56.38-35.93,112.93-71.59c1.61-1,3.28-3.27,5.18-2.24s.89,3.65.9,5.56q.06,83.63,0,167.24c0,5.55.12,5.66,5.54,5.68q13.57,0,27.14,0c7,0,7,0,7-7.11V49c0-1.06-.05-2.13,0-3.19.06-2.7-1.28-3.83-3.93-3.79-4.65.06-9.32.17-14,0a18.7,18.7,0,0,0-11.22,3.15c-43,26.65-86,53.13-129,79.82-3.57,2.22-6.14,2.13-9.65-.06C160.19,100.19,120.25,76,80.82,51c-10.21-6.47-20.22-10.38-32.36-9.1-6.56.68-6.63.13-6.63,6.8Q41.82,106.34,41.82,164Z"/></g></g></svg>