<svg xmlns="http://www.w3.org/2000/svg" viewBox="0 0 153 274.76"><defs><style>.cls-1{fill:#ccc;}</style></defs><g id="Capa_2" data-name="Capa 2"><g id="Capa_1-2" data-name="Capa 1"><path class="cls-1" d="M0,11.19V73.82a11.14,11.14,0,0,0,4.31,8.81L135,184.38a11.17,11.17,0,0,0,18-8.81V112.94a11.18,11.18,0,0,0-4.31-8.82L18,2.38A11.17,11.17,0,0,0,0,11.19Z"/><path class="cls-1" d="M0,135.64V263.77a11,11,0,0,0,19.43,7l29.24-35.42a11,11,0,0,1,8.57-4l64.1.63a11,11,0,0,0,6.81-19.66L17.68,127A11,11,0,0,0,0,135.64Z"/></g></g></svg>