<svg xmlns="http://www.w3.org/2000/svg" viewBox="0 0 107.89 193.76"><defs><style>.cls-1{fill:#1d1d1b;}</style></defs><g id="Capa_2" data-name="Capa 2"><g id="Capa_1-2" data-name="Capa 1"><path class="cls-1" d="M104.86,73.43,12.72,1.68A7.88,7.88,0,0,0,0,7.89V52.06a7.86,7.86,0,0,0,3,6.21L95.18,130a7.87,7.87,0,0,0,12.71-6.21V79.64A7.88,7.88,0,0,0,104.86,73.43Z"/><path class="cls-1" d="M90.37,149.73l-77.9-60.2A7.74,7.74,0,0,0,0,95.65V186a7.73,7.73,0,0,0,13.7,4.92l20.62-25a7.72,7.72,0,0,1,6-2.81l45.21.44A7.74,7.74,0,0,0,90.37,149.73Z"/></g></g></svg>