<svg xmlns="http://www.w3.org/2000/svg" xmlns:xlink="http://www.w3.org/1999/xlink" viewBox="0 0 281 281"><defs><style>.cls-1{fill:url(#Degradado_sin_nombre_8);}.cls-2{fill:#fff;}</style><linearGradient id="Degradado_sin_nombre_8" x1="8.49" y1="36.95" x2="218.91" y2="202.01" gradientUnits="userSpaceOnUse"><stop offset="0" stop-color="#4a77fc"/><stop offset="1" stop-color="#7559fc"/></linearGradient></defs><g id="Capa_2" data-name="Capa 2"><g id="Capa_1-2" data-name="Capa 1"><rect class="cls-1" width="281" height="281" rx="82.17"/><path class="cls-2" d="M86.49,51.4V95.62a7.91,7.91,0,0,0,3,6.23l92.25,71.83a7.88,7.88,0,0,0,12.73-6.22V123.24a7.87,7.87,0,0,0-3-6.22L99.22,45.18A7.89,7.89,0,0,0,86.49,51.4Z"/><path class="cls-2" d="M86.49,139.27v90.47a7.75,7.75,0,0,0,13.72,4.93l20.64-25a7.73,7.73,0,0,1,6.05-2.81l45.26.44A7.75,7.75,0,0,0,177,193.41L99,133.14A7.74,7.74,0,0,0,86.49,139.27Z"/></g></g></svg>