<svg xmlns="http://www.w3.org/2000/svg" xmlns:xlink="http://www.w3.org/1999/xlink" viewBox="0 0 454 454"><defs><style>.cls-1{fill:url(#Degradado_sin_nombre_8);filter:url(#filter);}.cls-2{fill:#fff;}</style><linearGradient id="Degradado_sin_nombre_8" x1="90.23" y1="109.59" x2="310.92" y2="281.1" gradientUnits="userSpaceOnUse"><stop offset="0" stop-color="#4a77fc"/><stop offset="1" stop-color="#7559fc"/></linearGradient><filter id="filter" x="0" y="0" width="454" height="454" filterUnits="userSpaceOnUse"><feOffset dx="14" dy="22" input="SourceAlpha"/><feGaussianBlur stdDeviation="29" result="blur"/><feFlood flood-color="#2f4e9b"/><feComposite operator="in" in2="blur"/><feComposite in="SourceGraphic"/></filter></defs><g id="Capa_2" data-name="Capa 2"><g id="Capa_1-2" data-name="Capa 1"><rect class="cls-1" x="73.25" y="65.25" width="279.5" height="279.5" rx="87"/><path class="cls-2" d="M263.91,181.55,171.77,109.8A7.88,7.88,0,0,0,159.05,116v44.17a7.86,7.86,0,0,0,3,6.21l92.14,71.75A7.88,7.88,0,0,0,267,231.93V187.76A7.86,7.86,0,0,0,263.91,181.55Z"/><path class="cls-2" d="M249.43,257.85l-77.91-60.2a7.74,7.74,0,0,0-12.47,6.12v90.36a7.74,7.74,0,0,0,13.71,4.92l20.61-25a7.73,7.73,0,0,1,6-2.82l45.21.45A7.74,7.74,0,0,0,249.43,257.85Z"/></g></g></svg>