<svg width="108" height="194" viewBox="0 0 108 194" fill="none" xmlns="http://www.w3.org/2000/svg">
<g clip-path="url(#clip0_15_2)">
<path d="M104.86 73.43L12.7199 1.68C11.5562 0.774238 10.1617 0.213197 8.69493 0.0606798C7.22817 -0.0918377 5.74804 0.170289 4.42286 0.81725C3.09768 1.46421 1.98064 2.47005 1.19875 3.72037C0.416868 4.97069 0.00152128 6.41533 -5.45831e-05 7.89V52.06C-0.00500651 53.2551 0.262617 54.4355 0.782466 55.5116C1.30231 56.5877 2.0607 57.5311 2.99995 58.27L95.1799 130C96.3427 130.907 97.7368 131.469 99.2033 131.622C100.67 131.775 102.15 131.513 103.475 130.865C104.8 130.218 105.916 129.212 106.697 127.961C107.477 126.71 107.891 125.265 107.89 123.79V79.64C107.89 78.4427 107.617 77.2612 107.092 76.1852C106.567 75.1091 105.804 74.1669 104.86 73.43Z" fill="#1D1D1B"/>
<path d="M90.37 149.73L12.47 89.53C11.3254 88.6463 9.95614 88.101 8.51742 87.9557C7.07869 87.8105 5.62805 88.0712 4.32993 88.7083C3.0318 89.3454 1.93811 90.3334 1.17281 91.5603C0.407516 92.7872 0.00123059 94.204 5.977e-06 95.65V186C-0.00197528 187.594 0.488648 189.149 1.40471 190.453C2.32077 191.757 3.61749 192.746 5.11734 193.285C6.6172 193.823 8.24687 193.885 9.78326 193.462C11.3197 193.039 12.6877 192.151 13.7 190.92L34.32 165.92C35.0488 165.036 35.9654 164.325 37.0032 163.839C38.041 163.353 39.174 163.104 40.32 163.11L85.53 163.55C87.1431 163.561 88.7192 163.067 90.038 162.138C91.3567 161.209 92.3523 159.891 92.8855 158.368C93.4187 156.846 93.4629 155.195 93.0119 153.646C92.5609 152.097 91.6372 150.728 90.37 149.73Z" fill="#1D1D1B"/>
</g>
<defs>
<clipPath id="clip0_15_2">
<rect width="107.89" height="193.76" fill="white"/>
</clipPath>
</defs>
</svg>
