<svg xmlns="http://www.w3.org/2000/svg" viewBox="0 0 67.85 67.85"><defs><style>.cls-1{fill:#e67aba;}.cls-2{fill:#fff;}.cls-3{fill:#050505;}</style></defs><g id="Capa_2" data-name="Capa 2"><g id="Capa_1-2" data-name="Capa 1"><path class="cls-1" d="M67.85,33.93A33.93,33.93,0,1,0,27,67.13v-7.8c-17.89-3.16-8.52-33.52-8.52-33.52,7.63,5.16,24.39-.2,24.39-.2-2.68,3.88-2.23,7-2.23,7s3.44,3.56,4.14,2.9c2-1.89,6.12-.3,6.12-.3,6,4,2.75,8.26,2.75,9.67s-6.27,4-6.27,4l0,16.32A33.94,33.94,0,0,0,67.85,33.93Z"/><path class="cls-2" d="M53.6,44.84c0-1.41,3.27-5.68-2.75-9.67,0,0-4.14-1.59-6.12.3-.7.66-4.14-2.9-4.14-2.9s-.45-3.08,2.23-7c0,0-16.76,5.36-24.39.2,0,0-9.37,30.36,8.52,33.52v7.8a34.22,34.22,0,0,0,7,.72,33.8,33.8,0,0,0,13.36-2.73l0-16.32S53.59,46.24,53.6,44.84Z"/><path d="M49.5,42.77a2,2,0,0,1,.11.73h-.49a1.09,1.09,0,0,0-.18-.42c-.25-.39-1-.61-1.5-.81s-1-.42-1.15-.92c-.22-.69.57-2.29,2.83-3.35a2.33,2.33,0,0,1,.86.54l.12.13c-2.18.82-2.85,2.12-2.85,2.42,0,0,.37.16.58.26A2.62,2.62,0,0,1,49.5,42.77Z"/><path d="M48.35,39.61l-1.63,1.47,2.33,1S47.28,40.43,48.35,39.61Z"/><path d="M50.33,39.15a.09.09,0,0,1-.09-.07,2,2,0,0,0-.14-.3,2.08,2.08,0,0,0-1.47-.86.1.1,0,1,1,0-.2,2.32,2.32,0,0,1,1.61,1,2.72,2.72,0,0,1,.16.35.1.1,0,0,1-.06.13Z"/><path d="M48.62,37.92a.2.2,0,0,1,.15.25h.39v-.27Z"/><path d="M49.49,38.93s.52-.28.71,0-.1-.28-.1-.28l-.49-.21Z"/><path d="M39.62,58.51a17.15,17.15,0,0,1-11.89,8.9V59.22S29.75,60.8,39.62,58.51Z"/><path d="M52.17,35.35s7.7-3.85.27-14.26-16-6.85-16-6.85S35,5.45,28.85,4.57c-8.72-1.27-11.4,11.18-11.4,11.18s-2-3.13-4.61-2.46-8.09,23,28.74,13.46c0,0-5.23,6.58,2.51,9.13A7.93,7.93,0,0,1,52.17,35.35Z"/><path d="M43.18,16c-.64-2.26-.5-5.49.94-6.22,1.83-.92,5,2.54,6.4,5.2.64,1.17,1.56,2.86,1.1,4.22C51,21,48.18,21.43,46.13,20.25A7.25,7.25,0,0,1,43.18,16Z"/><path d="M48.27,19.32c.75-1.9,4.9-2.65,7-.81a3.67,3.67,0,0,1,1.26,3.81c-.66,1.7-2.91,1.92-3.22,2a4.76,4.76,0,0,1-4.27-2C48.82,22,47.8,20.53,48.27,19.32Z"/><path d="M49.25,23.54c4-2.12,8.31,2.53,8.42,2.85a12.24,12.24,0,0,0-9.28-1.83c-2.11.43-3.59-.14-3.66-.33S47.05,24.7,49.25,23.54Z"/><path d="M57.68,26.89a.86.86,0,0,1-.45-.18,11.51,11.51,0,0,0-8.74-1.66c-2.07.42-4,0-4.23-.65l-.09-.25.17-.24c.19-.26.46-.24.94-.21A6.83,6.83,0,0,0,49,23.09,5.6,5.6,0,0,1,53.88,23a10,10,0,0,1,4.26,3.24l.11.34-.28.22A.46.46,0,0,1,57.68,26.89ZM50.91,23.8a12.14,12.14,0,0,1,3.4.48,5.14,5.14,0,0,0-4.58-.42A11.81,11.81,0,0,1,50.91,23.8Z"/><path d="M54.18,32.57s2.67,3.43,0,6.2c0,0-.87-3-3.33-3.6l.35-4.53Z"/><path class="cls-3" d="M31.31,60c-4.7,0-8.38-1.37-11-4.08-8.18-8.49-3-27-2.83-27.74a.5.5,0,0,1,.62-.34.49.49,0,0,1,.34.62c-.05.18-5.19,18.69,2.59,26.77C24.73,59.09,30.81,60,39.12,58a.5.5,0,0,1,.6.37.49.49,0,0,1-.36.6A33.73,33.73,0,0,1,31.31,60Z"/><path class="cls-3" d="M47.33,48.8a.5.5,0,0,1-.06-1c3.49-.41,6.92-2.71,6.7-6.94a6.83,6.83,0,0,0-.74-2.93,5.54,5.54,0,0,0-2.66-2.33,6.05,6.05,0,0,0-6,.43.51.51,0,0,1-.7-.09.5.5,0,0,1,.09-.7,7,7,0,0,1,7-.56,6.54,6.54,0,0,1,3.13,2.77A7.6,7.6,0,0,1,55,40.81c.25,4.88-3.63,7.52-7.58,8Z"/><path class="cls-3" d="M25,45.57c-.22,0-.44,0-.65,0A3.74,3.74,0,0,1,22.55,45,2.24,2.24,0,0,1,21.7,43a25.28,25.28,0,0,1,1.54-8l1,.31A24.38,24.38,0,0,0,22.7,43c0,.65.06,1,.41,1.23a2.83,2.83,0,0,0,1.27.35,8.71,8.71,0,0,0,2.37-.16l.18,1A11.16,11.16,0,0,1,25,45.57Z"/><circle cx="30.09" cy="38.46" r="1.25"/><circle class="cls-3" cx="19.68" cy="39.4" r="1.25"/><path class="cls-3" d="M27,33.19v.09c0,.32.32.35.57.32.52-.06,1-.23,1.55-.28a5.44,5.44,0,0,1,1.56.08c.51.11,1,.36,1.5.43a.61.61,0,0,0,.72-.65,1,1,0,0,0-.22-.49,3.45,3.45,0,0,0-1.48-1.07,3.2,3.2,0,0,0-.91-.28,3.28,3.28,0,0,0-2.05.44,3,3,0,0,0-.77.56A1.57,1.57,0,0,0,27,33.19Z"/><path class="cls-3" d="M16.55,34.05c0,.39.31.38.56.28.42-.16.78-.43,1.2-.58a3.66,3.66,0,0,1,1.31-.24c.44,0,.89.15,1.33.11a.59.59,0,0,0,.5-.52.7.7,0,0,0-.09-.32,2,2,0,0,0-1.31-.8,3,3,0,0,0-1.36,0,2.85,2.85,0,0,0-1.28.68,3,3,0,0,0-.78,1A.79.79,0,0,0,16.55,34.05Z"/><path class="cls-3" d="M27.29,53a7.2,7.2,0,0,1-1.66-.2c-1.64-.41-3.27-1.65-2.94-3.41a1,1,0,0,1,.21-.51c.42-.57,1.24-.48,1.68-.44l.18,0a3.51,3.51,0,0,0,.41,0,6.53,6.53,0,0,0,2.28-.46l.37-.16A2.85,2.85,0,0,1,30,47.59a1.66,1.66,0,0,1,.87,1,3.32,3.32,0,0,1-.35,3A3.72,3.72,0,0,1,27.29,53Zm-3.23-3.59c-.29,0-.35.06-.37.08-.26,1.38,1.32,2.13,2.18,2.34,1.33.33,3,.27,3.81-.86a2.3,2.3,0,0,0,.24-2.07.66.66,0,0,0-.32-.43c-.31-.13-.9.12-1.38.33l-.4.17a7.61,7.61,0,0,1-2.63.53l-.54,0-.18,0Z"/><path class="cls-3" d="M47.28,65.34a.5.5,0,0,1-.5-.5V48.4a.51.51,0,0,1,.5-.5.5.5,0,0,1,.5.5V64.84A.5.5,0,0,1,47.28,65.34Z"/><path class="cls-3" d="M27.45,67.41a.5.5,0,0,1-.5-.5V59.33a.5.5,0,0,1,.5-.5.5.5,0,0,1,.5.5v7.58A.5.5,0,0,1,27.45,67.41Z"/><polygon points="17.43 28.41 17.9 26.65 18.87 27.04 18.25 29.25 17.43 28.41"/></g></g></svg>