<svg xmlns="http://www.w3.org/2000/svg" viewBox="0 0 409.4 409.08"><g id="Capa_2" data-name="Capa 2"><g id="Capa_1-2" data-name="Capa 1"><path d="M0,220.37V189.23a30.54,30.54,0,0,0,.58-3.12,191.62,191.62,0,0,1,17.58-66.37Q60.7,30.37,156.61,5.36C167.31,2.58,178.3,1.42,189.23,0h30.34c4.87.62,9.77,1.1,14.61,1.89,61.64,10,109.91,41.07,143.3,93.76,31.95,50.41,39.73,105.28,24.18,162.8-14,51.67-44.48,91.77-89.91,120-42.69,26.57-89.29,35.51-138.94,28.09a193.43,193.43,0,0,1-76.07-28.41,10.71,10.71,0,0,0-10-1.19c-22.64,7.38-45.33,14.57-68,21.79-1.44.45-3.18,1.78-4.42.33-1-1.15.15-2.79.6-4.14,7.23-21.57,14.37-43.17,21.82-64.66,1.51-4.37,1-7.63-1.6-11.41a200.09,200.09,0,0,1-31.3-74.1C2.12,236.69,1.63,228.45,0,220.37ZM132.31,94.29c-14.1-1.72-24.25,3.59-32.2,14.06C85,128.25,82.93,150.17,90,173.43c4.57,15.08,12.83,28.24,21.88,41,16.87,23.8,36,45.38,59.14,63.36,24.19,18.83,52,29.88,81.17,37.93,14.09,3.88,28.18,4,41.83-2,24.75-10.91,32.28-23.27,33.21-48.32.14-3.68-1.23-6.44-4.62-8.12-15.48-7.7-30.85-15.65-46.8-22.37-7.24-3.06-11.44-1.62-16.23,4.82-3.81,5.12-7.5,10.33-11.43,15.36-7.22,9.24-11.15,10.18-22,5.67-33.87-14.06-58.83-38.1-77.54-69.16-2.45-4.06-2.16-7.84.68-11.47,1.64-2.09,3.42-4.07,5.17-6.07,3.42-3.9,7.09-7.57,9.94-11.95a13.73,13.73,0,0,0,1.1-13.66c-6-14.23-12-28.45-17.75-42.76C144.72,98.25,140.82,92.52,132.31,94.29Z"/></g></g></svg>